<?xml version="1.0" encoding="utf-8"?>
<COLLADA xmlns="http://www.collada.org/2005/11/COLLADASchema" version="1.4.1">
  <asset>
    <contributor>
      <author>DJDASH</author>
      <authoring_tool>OpenCOLLADA for 3ds Max;  ;  </authoring_tool>
      <source_data>file:///C:/Users/DJDASH/Documents/gcgmodels/scripted%20objects/paw%20print%20tip%20jar/pawprinttipjar.max</source_data>
    </contributor>
    <created>2016-03-28T13:34:12</created>
    <modified>2016-03-28T13:34:12</modified>
    <unit name="meter" meter="1"/>
    <up_axis>Z_UP</up_axis>
  </asset>
  <library_effects>
    <effect id="ColorEffectR154G215B229">
      <profile_COMMON>
        <technique sid="common">
          <phong>
            <ambient>
              <color>1 0 0 1</color>
            </ambient>
            <diffuse>
              <color>1 0 0 1</color>
            </diffuse>
            <specular>
              <color>1 1 1 1</color>
            </specular>
            <shininess>
              <float>10</float>
            </shininess>
            <reflective>
              <color>0 0 0 1</color>
            </reflective>
          </phong>
        </technique>
      </profile_COMMON>
    </effect>
  </library_effects>
  <library_materials>
    <material id="ColorEffectR154G215B229-material" name="ColorEffectR154G215B229-material">
      <instance_effect url="#ColorEffectR154G215B229"/>
    </material>
  </library_materials>
  <library_geometries>
    <geometry id="geom-Line001" name="Line001">
      <mesh>
        <source id="geom-Line001-positions">
          <float_array id="geom-Line001-positions-array" count="672">8.008612 -7.3738 0 9.63934 -7.563419 0 11.30799 -7.297951 0 12.40779 -6.539473 0 13.05249 -5.136288 0 13.16627 -3.202168 0 12.44571 -0.9646559 0 11.55 1.122545 0 10.18474 3.322133 0 8.48014 5.673417 0 6.856268 7.545159 0 5.183865 9.062116 0 3.060125 10.4653 0 1.050157 10.99624 0 -0.8839632 10.99624 0 -3.007703 10.73077 0 -5.207291 9.668899 0 -7.255183 8.531181 0 -9.075531 6.597061 0 -10.30158 4.752875 0 -11.59099 2.47744 0 -12.70087 0.01898766 0 -13.34557 -2.104752 0 -13.61104 -4.228493 0 -12.92841 -5.897144 0 -11.33561 -7.11071 0 -9.704876 -7.527874 0 -6.898506 -7.11071 0 -4.736842 -6.42808 0 -2.385559 -5.707525 0 0.1553442 -5.252438 0 2.734171 -5.55583 0 6.185248 -6.959015 0 11.30799 -7.297951 10 12.40779 -6.539473 10 13.05249 -5.136288 10 13.16627 -3.202168 10 12.44571 -0.9646559 10 11.55 1.122545 10 10.18474 3.322133 10 8.48014 5.673417 10 6.856268 7.545159 10 5.183865 9.062116 10 3.060125 10.4653 10 1.050157 10.99624 10 -0.8839632 10.99624 10 -3.007703 10.73077 10 -5.207291 9.668899 10 -7.255183 8.531181 10 -9.075531 6.597061 10 -10.30158 4.752875 10 -11.59099 2.47744 10 -12.70087 0.01898766 10 -13.34557 -2.104752 10 -13.61104 -4.228493 10 -12.92841 -5.897144 10 -11.33561 -7.11071 10 -9.704876 -7.527874 10 -6.898506 -7.11071 10 -4.736842 -6.42808 10 -2.385559 -5.707525 10 0.1553442 -5.252438 10 2.734171 -5.55583 10 6.185248 -6.959015 10 8.008612 -7.3738 10 9.63934 -7.563419 10 -11.69615 14.22204 0 -13.34276 16.94746 0 -15.84107 18.59407 0 -18.11225 18.76441 0 -20.15632 17.79916 0 -20.28924 17.39938 0 -20.41671 17.01004 0 -20.53325 16.64155 0 -20.6334 16.30435 0 -20.7117 16.00886 0 -20.76268 15.76552 0 -20.78089 15.58475 0 -20.89445 12.97289 0 -20.15632 10.92882 0 -19.02072 8.998315 0 -17.48767 7.692383 0 -15.38683 6.72713 0 -13.56988 6.500011 0 -11.92327 7.522045 0 -11.07158 9.395772 0 -11.12836 11.72374 0 -3.608674 19.10638 0 -2.473081 21.49112 0 -2.64342 24.50044 0 -3.211216 27.28265 0 -4.460368 29.15637 0 -6.561214 31.20044 0 -8.491722 31.5979 0 -10.81969 30.97332 0 -11.95528 29.15637 0 -12.63663 26.99875 0 -12.57985 24.84112 0 -12.06884 22.56994 0 -11.50104 21.20723 0 -10.59257 19.39028 0 -10.43398 19.24411 0 -10.27291 19.09694 0 -10.10688 18.94779 0 -9.933394 18.79566 0 -9.749978 18.63956 0 -9.554147 18.47849 0 -9.343416 18.31146 0 -9.112822 18.1494 0 -8.861369 18.00224 0 -8.592534 17.86749 0 -8.309795 17.74268 0 -8.016626 17.62531 0 -7.716506 17.51291 0 -7.412909 17.40299 0 -5.312062 17.47626 0 3.545559 30.97332 0 2.012509 28.98603 0 0.820137 25.63604 0 0.4794598 22.85383 0 1.331154 19.84451 0 2.920983 17.91401 0 5.078609 17.23265 0 7.520133 17.80045 0 9.450641 19.90129 0 10.47267 22.05892 0 11.04047 25.1818 0 10.35911 28.70214 0 8.712505 31.0301 0 6.668439 31.8818 0 4.85149 31.54112 0 11.78915 18.22743 0 10.36966 16.18336 0 9.347624 13.23082 0 9.290844 10.16472 0 10.36966 7.723196 0 12.41372 6.474044 0 15.30948 6.928281 0 16.95609 8.404551 0 18.43236 10.27828 0 19.11372 12.37912 0 19.39762 15.38844 0 18.65948 18.00031 0 16.89931 19.7037 0 14.96881 19.64692 0 -18.11225 18.76441 10 -20.15632 17.79916 10 -20.28924 17.39938 10 -20.41671 17.01004 10 -20.53325 16.64155 10 -20.6334 16.30435 10 -20.7117 16.00886 10 -20.76268 15.76552 10 -20.78089 15.58475 10 -20.89445 12.97289 10 -20.15632 10.92882 10 -19.02072 8.998315 10 -17.48767 7.692383 10 -15.38683 6.72713 10 -13.56988 6.500011 10 -11.92327 7.522045 10 -11.07158 9.395772 10 -11.12836 11.72374 10 -11.69615 14.22204 10 -13.34276 16.94746 10 -15.84107 18.59407 10 -8.491722 31.5979 10 -10.81969 30.97332 10 -11.95528 29.15637 10 -12.63663 26.99875 10 -12.57985 24.84112 10 -12.06884 22.56994 10 -11.50104 21.20723 10 -10.59257 19.39028 10 -10.43398 19.24411 10 -10.27291 19.09694 10 -10.10688 18.94779 10 -9.933394 18.79566 10 -9.749978 18.63956 10 -9.554147 18.47849 10 -9.343416 18.31146 10 -9.112822 18.1494 10 -8.861369 18.00224 10 -8.592534 17.86749 10 -8.309795 17.74268 10 -8.016626 17.62531 10 -7.716506 17.51291 10 -7.412909 17.40299 10 -5.312062 17.47626 10 -3.608674 19.10638 10 -2.473081 21.49112 10 -2.64342 24.50044 10 -3.211216 27.28265 10 -4.460368 29.15637 10 -6.561214 31.20044 10 5.078609 17.23265 10 7.520133 17.80045 10 9.450641 19.90129 10 10.47267 22.05892 10 11.04047 25.1818 10 10.35911 28.70214 10 8.712505 31.0301 10 6.668439 31.8818 10 4.85149 31.54112 10 3.545559 30.97332 10 2.012509 28.98603 10 0.820137 25.63604 10 0.4794598 22.85383 10 1.331154 19.84451 10 2.920983 17.91401 10 18.65948 18.00031 10 16.89931 19.7037 10 14.96881 19.64692 10 11.78915 18.22743 10 10.36966 16.18336 10 9.347624 13.23082 10 9.290844 10.16472 10 10.36966 7.723196 10 12.41372 6.474044 10 15.30948 6.928281 10 16.95609 8.404551 10 18.43236 10.27828 10 19.11372 12.37912 10 19.39762 15.38844 10</float_array>
          <technique_common>
            <accessor source="#geom-Line001-positions-array" count="224" stride="3">
              <param name="X" type="float"/>
              <param name="Y" type="float"/>
              <param name="Z" type="float"/>
            </accessor>
          </technique_common>
        </source>
        <source id="geom-Line001-normals">
          <float_array id="geom-Line001-normals-array" count="672">0.2790087 -0.6970103 0.6605535 0.5804397 -0.4877773 0.6520453 0.7221959 -0.1803539 0.6677617 -0.7497063 -0.09952628 0.6542439 -0.601413 -0.4610226 0.6525034 -0.3253844 -0.6722918 0.6649427 -0.0383897 -0.7456786 0.665199 -0.7094207 0.1508685 0.6884483 0.1627591 -0.705532 0.6897349 -0.6750139 0.2536119 0.6928473 0.2097744 -0.6742678 0.7080662 -0.6394175 0.3246458 0.6969579 0.1629227 -0.6736464 0.7208723 -0.6090794 0.3743815 0.6991859 -0.5679255 0.4507855 0.6886603 -0.4536885 0.5828904 0.6740961 -0.3284594 0.6333387 0.7007114 0.02015965 -0.6704843 0.7416497 -0.2095703 0.7099004 0.6723999 -0.04477424 0.7191751 0.6933848 0.09450451 0.7278062 0.67924 0.3025444 0.6755546 0.6723784 0.4437541 0.5714356 0.6903214 0.5147523 0.5035052 0.6939111 0.5613194 0.4455728 0.6974134 -0.1678644 -0.6529326 0.73858 0.5935748 0.3986269 0.6991177 0.6413522 0.3342497 0.6906117 -0.2175085 -0.6910665 0.6892874 0.6717637 0.2516747 0.6967019 -0.1214167 -0.7085204 0.6951667 0.7382935 0.09381692 0.6679229 0.01544545 -0.7352049 0.6776689 0.2790086 -0.6970101 -0.6605536 0.5804397 -0.4877773 -0.6520453 0.7221959 -0.1803538 -0.6677617 0.7382935 0.09381695 -0.667923 0.6717636 0.2516746 -0.6967019 0.6413521 0.3342497 -0.6906117 0.5935745 0.3986267 -0.6991181 0.5613194 0.4455729 -0.6974134 0.5147521 0.503505 -0.6939112 0.4437542 0.5714356 -0.6903215 0.3025446 0.6755549 -0.6723782 0.09450451 0.7278063 -0.67924 -0.04477425 0.7191752 -0.6933846 -0.2095703 0.7099004 -0.6724 -0.3284594 0.6333388 -0.7007114 -0.4536885 0.5828903 -0.6740962 -0.5679256 0.4507857 -0.6886601 -0.6090795 0.3743816 -0.6991856 -0.6394177 0.3246459 -0.6969576 -0.675014 0.2536119 -0.6928473 -0.7094207 0.1508685 -0.6884483 -0.7497063 -0.09952626 -0.6542437 -0.6014129 -0.4610226 -0.6525034 -0.3253844 -0.6722918 -0.6649427 -0.03838971 -0.7456787 -0.6651988 0.1627591 -0.7055319 -0.6897349 0.2097744 -0.6742678 -0.7080662 0.1629227 -0.6736465 -0.7208721 0.02015964 -0.6704842 -0.7416499 -0.1678644 -0.6529326 -0.73858 -0.2175085 -0.6910665 -0.6892874 -0.1214167 -0.7085204 -0.6951668 0.01544544 -0.7352049 -0.6776689 -0.1377972 0.7439003 0.6539299 -0.5821159 0.5160512 0.6283568 -0.671993 0.2217197 0.7065874 -0.6741874 0.2169615 0.7059737 -0.2023126 -0.71018 0.6743248 0.1645014 -0.7512444 0.6391957 0.572589 -0.5031781 0.6472662 0.7360612 -0.1500663 0.6600713 0.7225751 0.09001084 0.6854074 -0.3957381 -0.6199544 0.6775307 -0.5674183 -0.4764535 0.6715866 0.685969 0.2767543 0.672944 -0.6578192 -0.3089907 0.6868761 -0.7374161 -0.1126145 0.6659846 0.5411143 0.5202754 0.6606882 -0.7115583 0.05126552 0.7007543 -0.710215 0.1098565 0.6953605 -0.6936901 0.1644617 0.7012463 -0.6839389 0.1921398 0.7037826 -0.6779267 0.2078567 0.7051319 0.2440842 0.7154034 0.6546914 -0.02222019 0.7520595 0.6587206 -0.4604549 0.6221217 0.633203 -0.6659376 0.3072194 0.6798112 -0.426892 -0.5716734 0.7006802 -0.3871296 -0.6025771 0.6978763 -0.3405958 -0.6278234 0.6998801 -0.4454884 -0.5517288 0.7050783 -0.3036074 -0.6446071 0.7016439 -0.2757341 -0.6553503 0.7031975 -0.4549593 -0.5437647 0.7052178 -0.2563265 -0.6617025 0.7045897 -0.4633481 -0.5363342 0.7054461 -0.2447896 -0.664697 0.7058724 -0.4702703 -0.5298526 0.7057636 -0.1159797 -0.736205 0.6667466 0.3002138 -0.7117748 0.6350185 0.6026233 -0.4356055 0.6686501 -0.4753867 -0.5247359 0.7061583 -0.4784302 -0.5213442 0.706615 -0.5942113 -0.4469388 0.6686993 -0.6498616 -0.2974266 0.6994407 0.7411745 -0.1455714 0.655339 0.7166797 0.09291705 0.6911848 -0.6914415 -0.2200043 0.6881184 -0.7221832 -0.08987463 0.6858382 0.6883539 0.2867082 0.6663086 0.5608534 0.4662491 0.6841457 -0.7335806 0.1032165 0.6717185 0.3562492 0.6721451 0.6490821 -0.02932146 -0.7574555 0.6522282 0.384477 -0.6591226 0.6463242 0.6120286 -0.4122488 0.6748866 0.4749586 0.5934024 0.6498368 0.07961105 0.7574354 0.6480384 -0.2143527 0.6985379 0.6827134 -0.4643872 0.5959853 0.6550925 -0.648922 0.3540969 0.6734359 0.6888306 0.2939993 0.6626289 0.7442837 0.00421672 0.6678504 -0.7106835 0.1678238 0.6832015 0.6990706 -0.2247905 0.6788001 -0.7444234 -0.05742053 0.6652344 -0.6626318 -0.3469677 0.6637263 -0.4259991 -0.6309383 0.6484147 0.650156 0.3884937 0.65297 0.2809215 0.7247075 0.6291917 -0.1661786 0.727264 0.6659367 -0.5745028 -0.5030204 0.6456912 -0.1504684 -0.7559512 0.6371006 0.3264771 -0.6876706 0.6484765 0.5290637 -0.4964414 0.6882132 -0.7350492 -0.1480639 0.6616493 -0.7278053 0.129343 0.6734762 0.6551889 -0.3498603 0.6695709 0.715059 -0.1478113 0.6832587 -0.6556096 0.333123 0.6776468 0.7411003 0.06738955 0.6680037 -0.4840702 0.5843144 0.6513468 -0.1377971 0.7439001 -0.65393 -0.5821157 0.5160513 -0.6283569 -0.6719932 0.2217198 -0.7065874 -0.6741883 0.2169618 -0.705973 -0.6779268 0.2078568 -0.7051318 -0.6839386 0.1921398 -0.7037829 -0.6936896 0.1644617 -0.7012467 -0.710216 0.1098566 -0.6953595 -0.7115578 0.05126544 -0.7007549 -0.7374161 -0.1126145 -0.6659846 -0.657819 -0.3089907 -0.6868762 -0.5674182 -0.4764535 -0.6715866 -0.395738 -0.6199543 -0.6775309 -0.2023127 -0.7101802 -0.6743246 0.1645014 -0.7512443 -0.6391959 0.5725891 -0.5031781 -0.6472662 0.7360612 -0.1500663 -0.6600712 0.7225749 0.09001085 -0.6854074 0.6859689 0.2767543 -0.6729439 0.5411146 0.5202756 -0.6606878 0.2440843 0.7154036 -0.6546912 -0.02222017 0.7520594 -0.6587206 -0.4604549 0.6221217 -0.6332029 -0.6659378 0.3072195 -0.6798111 -0.7335805 0.1032165 -0.6717185 -0.722183 -0.0898746 -0.6858383 -0.6914415 -0.2200043 -0.6881183 -0.6498619 -0.2974267 -0.6994403 -0.5942113 -0.4469389 -0.6686992 -0.4784287 -0.5213426 -0.7066173 -0.4753869 -0.5247362 -0.706158 -0.4702702 -0.5298524 -0.7057637 -0.463348 -0.536334 -0.7054463 -0.4549583 -0.5437635 -0.7052193 -0.4454882 -0.5517287 -0.7050785 -0.426893 -0.5716746 -0.7006786 -0.3871296 -0.6025771 -0.6978765 -0.3405963 -0.6278242 -0.6998793 -0.3036074 -0.644607 -0.7016441 -0.2757338 -0.6553495 -0.7031984 -0.2563266 -0.6617026 -0.7045895 -0.2447895 -0.6646965 -0.7058731 -0.1159795 -0.7362047 -0.6667469 0.3002138 -0.7117748 -0.6350182 0.6026231 -0.4356054 -0.6686504 0.7411749 -0.1455715 -0.6553387 0.7166797 0.09291705 -0.6911849 0.688354 0.2867082 -0.6663086 0.5608532 0.466249 -0.6841458 0.3562492 0.6721453 -0.6490818 -0.02932148 -0.7574554 -0.6522282 0.384477 -0.6591227 -0.6463241 0.6120285 -0.4122488 -0.6748867 0.6990706 -0.2247904 -0.6788001 0.7442837 0.004216731 -0.6678504 0.6888305 0.2939993 -0.6626289 0.4749585 0.5934023 -0.649837 0.07961106 0.7574353 -0.6480384 -0.2143527 0.6985378 -0.6827136 -0.4643871 0.5959852 -0.6550924 -0.648922 0.3540969 -0.6734357 -0.7106835 0.1678238 -0.6832015 -0.7444233 -0.05742051 -0.6652345 -0.6626318 -0.3469677 -0.6637263 -0.4259991 -0.6309384 -0.6484147 0.650156 0.3884938 -0.65297 0.2809215 0.7247074 -0.6291918 -0.1661786 0.727264 -0.6659368 -0.4840702 0.5843145 -0.6513467 -0.6556095 0.333123 -0.6776469 -0.7278052 0.129343 -0.673476 -0.7350492 -0.1480638 -0.6616492 -0.5745029 -0.5030204 -0.6456912 -0.1504684 -0.7559512 -0.6371006 0.3264771 -0.6876705 -0.6484766 0.5290637 -0.4964414 -0.6882133 0.6551888 -0.3498602 -0.669571 0.715059 -0.1478113 -0.6832588 0.7411004 0.06738957 -0.6680036</float_array>
          <technique_common>
            <accessor source="#geom-Line001-normals-array" count="224" stride="3">
              <param name="X" type="float"/>
              <param name="Y" type="float"/>
              <param name="Z" type="float"/>
            </accessor>
          </technique_common>
        </source>
        <vertices id="geom-Line001-vertices">
          <input semantic="POSITION" source="#geom-Line001-positions"/>
        </vertices>
        <triangles material="ColorMaterial" count="428">
          <input semantic="VERTEX" source="#geom-Line001-vertices" offset="0"/>
          <input semantic="NORMAL" source="#geom-Line001-normals" offset="1"/>
          <p>33 0 34 1 35 2 54 3 55 4 56 5 54 3 56 5 57 6 53 7 54 3 57 6 53 7 57 6 58 8 52 9 53 7 58 8 52 9 58 8 59 10 51 11 52 9 59 10 51 11 59 10 60 12 50 13 51 11 60 12 49 14 50 13 60 12 48 15 49 14 60 12 47 16 48 15 60 12 47 16 60 12 61 17 46 18 47 16 61 17 45 19 46 18 61 17 44 20 45 19 61 17 43 21 44 20 61 17 42 22 43 21 61 17 41 23 42 22 61 17 40 24 41 23 61 17 40 24 61 17 62 25 39 26 40 24 62 25 38 27 39 26 62 25 38 27 62 25 63 28 37 29 38 27 63 28 37 29 63 28 64 30 36 31 37 29 64 30 36 31 64 30 65 32 35 2 36 31 65 32 33 0 35 2 65 32 2 33 3 34 34 1 34 1 33 0 2 33 3 34 4 35 35 2 35 2 34 1 3 34 4 35 5 36 36 31 36 31 35 2 4 35 5 36 6 37 37 29 37 29 36 31 5 36 6 37 7 38 38 27 38 27 37 29 6 37 7 38 8 39 39 26 39 26 38 27 7 38 8 39 9 40 40 24 40 24 39 26 8 39 9 40 10 41 41 23 41 23 40 24 9 40 10 41 11 42 42 22 42 22 41 23 10 41 11 42 12 43 43 21 43 21 42 22 11 42 12 43 13 44 44 20 44 20 43 21 12 43 13 44 14 45 45 19 45 19 44 20 13 44 14 45 15 46 46 18 46 18 45 19 14 45 15 46 16 47 47 16 47 16 46 18 15 46 16 47 17 48 48 15 48 15 47 16 16 47 17 48 18 49 49 14 49 14 48 15 17 48 18 49 19 50 50 13 50 13 49 14 18 49 19 50 20 51 51 11 51 11 50 13 19 50 20 51 21 52 52 9 52 9 51 11 20 51 21 52 22 53 53 7 53 7 52 9 21 52 22 53 23 54 54 3 54 3 53 7 22 53 23 54 24 55 55 4 55 4 54 3 23 54 24 55 25 56 56 5 56 5 55 4 24 55 25 56 26 57 57 6 57 6 56 5 25 56 26 57 27 58 58 8 58 8 57 6 26 57 27 58 28 59 59 10 59 10 58 8 27 58 28 59 29 60 60 12 60 12 59 10 28 59 29 60 30 61 61 17 61 17 60 12 29 60 30 61 31 62 62 25 62 25 61 17 30 61 31 62 32 63 63 28 63 28 62 25 31 62 32 63 0 64 64 30 64 30 63 28 32 63 0 64 1 65 65 32 65 32 64 30 0 64 1 65 2 33 33 0 33 0 65 32 1 65 2 33 1 65 0 64 0 64 32 63 31 62 28 59 27 58 26 57 29 60 28 59 26 57 26 57 25 56 24 55 24 55 23 54 22 53 26 57 24 55 22 53 29 60 26 57 22 53 30 61 29 60 22 53 22 53 21 52 20 51 20 51 19 50 18 49 22 53 20 51 18 49 18 49 17 48 16 47 16 47 15 46 14 45 18 49 16 47 14 45 22 53 18 49 14 45 14 45 13 44 12 43 12 43 11 42 10 41 14 45 12 43 10 41 10 41 9 40 8 39 8 39 7 38 6 37 10 41 8 39 6 37 14 45 10 41 6 37 22 53 14 45 6 37 30 61 22 53 6 37 31 62 30 61 6 37 0 64 31 62 6 37 6 37 5 36 4 35 0 64 6 37 4 35 2 33 0 64 4 35 2 33 4 35 3 34 145 66 146 67 147 68 145 66 147 68 148 69 158 70 159 71 160 72 158 70 160 72 161 73 158 70 161 73 162 74 157 75 158 70 162 74 156 76 157 75 162 74 156 76 162 74 163 77 155 78 156 76 163 77 154 79 155 78 163 77 154 79 163 77 164 80 153 81 154 79 164 80 152 82 153 81 164 80 151 83 152 82 164 80 150 84 151 83 164 80 149 85 150 84 164 80 149 85 164 80 165 86 148 69 149 85 165 86 145 66 148 69 165 86 166 87 167 88 168 89 180 90 181 91 182 92 179 93 180 90 182 92 179 93 182 92 183 94 179 93 183 94 184 95 178 96 179 93 184 95 178 96 184 95 185 97 177 98 178 96 185 97 177 98 185 97 186 99 176 100 177 98 186 99 176 100 186 99 187 101 176 100 187 101 188 102 176 100 188 102 189 103 175 104 176 100 189 103 174 105 175 104 189 103 173 106 174 105 189 103 172 107 173 106 189 103 172 107 189 103 190 108 172 107 190 108 191 109 171 110 172 107 191 109 170 111 171 110 191 109 170 111 191 109 192 112 170 111 192 112 193 113 169 114 170 111 193 113 168 89 169 114 193 113 168 89 193 113 194 115 166 87 168 89 194 115 195 116 196 117 197 118 201 119 202 120 203 121 201 119 203 121 204 122 201 119 204 122 205 123 200 124 201 119 205 123 199 125 200 124 205 123 199 125 205 123 206 126 198 127 199 125 206 126 198 127 206 126 207 128 197 118 198 127 207 128 197 118 207 128 208 129 197 118 208 129 209 130 195 116 197 118 209 130 210 131 211 132 212 133 217 134 218 135 219 136 217 134 219 136 220 137 216 138 217 134 220 137 215 139 216 138 220 137 215 139 220 137 221 140 215 139 221 140 222 141 214 142 215 139 222 141 214 142 222 141 223 143 213 144 214 142 223 143 212 133 213 144 223 143 210 131 212 133 223 143 69 145 70 146 146 67 146 67 145 66 69 145 70 146 71 147 147 68 147 68 146 67 70 146 71 147 72 148 148 69 148 69 147 68 71 147 72 148 73 149 149 85 149 85 148 69 72 148 73 149 74 150 150 84 150 84 149 85 73 149 74 150 75 151 151 83 151 83 150 84 74 150 75 151 76 152 152 82 152 82 151 83 75 151 76 152 77 153 153 81 153 81 152 82 76 152 77 153 78 154 154 79 154 79 153 81 77 153 78 154 79 155 155 78 155 78 154 79 78 154 79 155 80 156 156 76 156 76 155 78 79 155 80 156 81 157 157 75 157 75 156 76 80 156 81 157 82 158 158 70 158 70 157 75 81 157 82 158 83 159 159 71 159 71 158 70 82 158 83 159 84 160 160 72 160 72 159 71 83 159 84 160 85 161 161 73 161 73 160 72 84 160 85 161 86 162 162 74 162 74 161 73 85 161 86 162 66 163 163 77 163 77 162 74 86 162 66 163 67 164 164 80 164 80 163 77 66 163 67 164 68 165 165 86 165 86 164 80 67 164 68 165 69 145 145 66 145 66 165 86 68 165 93 166 94 167 167 88 167 88 166 87 93 166 94 167 95 168 168 89 168 89 167 88 94 167 95 168 96 169 169 114 169 114 168 89 95 168 96 169 97 170 170 111 170 111 169 114 96 169 97 170 98 171 171 110 171 110 170 111 97 170 98 171 99 172 172 107 172 107 171 110 98 171 99 172 100 173 173 106 173 106 172 107 99 172 100 173 101 174 174 105 174 105 173 106 100 173 101 174 102 175 175 104 175 104 174 105 101 174 102 175 103 176 176 100 176 100 175 104 102 175 103 176 104 177 177 98 177 98 176 100 103 176 104 177 105 178 178 96 178 96 177 98 104 177 105 178 106 179 179 93 179 93 178 96 105 178 106 179 107 180 180 90 180 90 179 93 106 179 107 180 108 181 181 91 181 91 180 90 107 180 108 181 109 182 182 92 182 92 181 91 108 181 109 182 110 183 183 94 183 94 182 92 109 182 110 183 111 184 184 95 184 95 183 94 110 183 111 184 112 185 185 97 185 97 184 95 111 184 112 185 113 186 186 99 186 99 185 97 112 185 113 186 114 187 187 101 187 101 186 99 113 186 114 187 115 188 188 102 188 102 187 101 114 187 115 188 87 189 189 103 189 103 188 102 115 188 87 189 88 190 190 108 190 108 189 103 87 189 88 190 89 191 191 109 191 109 190 108 88 190 89 191 90 192 192 112 192 112 191 109 89 191 90 192 91 193 193 113 193 113 192 112 90 192 91 193 92 194 194 115 194 115 193 113 91 193 92 194 93 166 166 87 166 87 194 115 92 194 122 195 123 196 196 117 196 117 195 116 122 195 123 196 124 197 197 118 197 118 196 117 123 196 124 197 125 198 198 127 198 127 197 118 124 197 125 198 126 199 199 125 199 125 198 127 125 198 126 199 127 200 200 124 200 124 199 125 126 199 127 200 128 201 201 119 201 119 200 124 127 200 128 201 129 202 202 120 202 120 201 119 128 201 129 202 130 203 203 121 203 121 202 120 129 202 130 203 116 204 204 122 204 122 203 121 130 203 116 204 117 205 205 123 205 123 204 122 116 204 117 205 118 206 206 126 206 126 205 123 117 205 118 206 119 207 207 128 207 128 206 126 118 206 119 207 120 208 208 129 208 129 207 128 119 207 120 208 121 209 209 130 209 130 208 129 120 208 121 209 122 195 195 116 195 116 209 130 121 209 142 210 143 211 211 132 211 132 210 131 142 210 143 211 144 212 212 133 212 133 211 132 143 211 144 212 131 213 213 144 213 144 212 133 144 212 131 213 132 214 214 142 214 142 213 144 131 213 132 214 133 215 215 139 215 139 214 142 132 214 133 215 134 216 216 138 216 138 215 139 133 215 134 216 135 217 217 134 217 134 216 138 134 216 135 217 136 218 218 135 218 135 217 134 135 217 136 218 137 219 219 136 219 136 218 135 136 218 137 219 138 220 220 137 220 137 219 136 137 219 138 220 139 221 221 140 221 140 220 137 138 220 139 221 140 222 222 141 222 141 221 140 139 221 140 222 141 223 223 143 223 143 222 141 140 222 141 223 142 210 210 131 210 131 223 143 141 223 68 165 67 164 66 163 66 163 86 162 85 161 68 165 66 163 85 161 85 161 84 160 83 159 83 159 82 158 81 157 85 161 83 159 81 157 68 165 85 161 81 157 81 157 80 156 79 155 79 155 78 154 77 153 81 157 79 155 77 153 68 165 81 157 77 153 77 153 76 152 75 151 75 151 74 150 73 149 77 153 75 151 73 149 68 165 77 153 73 149 73 149 72 148 71 147 68 165 73 149 71 147 68 165 71 147 70 146 69 145 68 165 70 146 92 194 91 193 90 192 90 192 89 191 88 190 92 194 90 192 88 190 88 190 87 189 115 188 115 188 114 187 113 186 88 190 115 188 113 186 92 194 88 190 113 186 113 186 112 185 111 184 111 184 110 183 109 182 113 186 111 184 109 182 109 182 108 181 107 180 107 180 106 179 105 178 109 182 107 180 105 178 113 186 109 182 105 178 105 178 104 177 103 176 103 176 102 175 101 174 105 178 103 176 101 174 101 174 100 173 99 172 99 172 98 171 97 170 101 174 99 172 97 170 105 178 101 174 97 170 113 186 105 178 97 170 92 194 113 186 97 170 97 170 96 169 95 168 92 194 97 170 95 168 92 194 95 168 94 167 93 166 92 194 94 167 121 209 120 208 119 207 119 207 118 206 117 205 121 209 119 207 117 205 117 205 116 204 130 203 130 203 129 202 128 201 117 205 130 203 128 201 128 201 127 200 126 199 126 199 125 198 124 197 128 201 126 199 124 197 117 205 128 201 124 197 121 209 117 205 124 197 121 209 124 197 123 196 122 195 121 209 123 196 141 223 140 222 139 221 139 221 138 220 137 219 137 219 136 218 135 217 139 221 137 219 135 217 135 217 134 216 133 215 133 215 132 214 131 213 135 217 133 215 131 213 139 221 135 217 131 213 131 213 144 212 143 211 139 221 131 213 143 211 141 223 139 221 143 211 142 210 141 223 143 211</p>
        </triangles>
      </mesh>
    </geometry>
  </library_geometries>
  <library_lights>
    <light id="EnvironmentAmbientLight" name="EnvironmentAmbientLight">
      <technique_common>
        <ambient>
          <color>0 0 0</color>
        </ambient>
      </technique_common>
    </light>
  </library_lights>
  <library_visual_scenes>
    <visual_scene id="MaxScene">
      <node name="EnvironmentAmbientLight">
        <instance_light url="#EnvironmentAmbientLight"/>
      </node>
      <node id="node-Line001" name="Line001">
        <translate>-0.4410485 5.465494 9.861658</translate>
        <rotate>-1 0 0 -90.00001</rotate>
        <instance_geometry url="#geom-Line001">
          <bind_material>
            <technique_common>
              <instance_material symbol="ColorMaterial" target="#ColorEffectR154G215B229-material"/>
            </technique_common>
          </bind_material>
        </instance_geometry>
        <extra>
          <technique profile="OpenCOLLADA">
            <cast_shadows>1</cast_shadows>
            <primary_visibility>1</primary_visibility>
            <receive_shadows>1</receive_shadows>
            <secondary_visibility>1</secondary_visibility>
          </technique>
        </extra>
      </node>
    </visual_scene>
  </library_visual_scenes>
  <scene>
    <instance_visual_scene url="#MaxScene"/>
  </scene>
</COLLADA>